HIERARCHY
ROOT Hips
{
  OFFSET 1.44925e-005 102.336 -0.101585
  CHANNELS 6 Xposition Yposition Zposition Zrotation Xrotation Yrotation
  JOINT LeftUpLeg
  {
    OFFSET 8.9458 -8.66707 0.101652
    CHANNELS 3 Zrotation Xrotation Yrotation
    JOINT LeftLeg
    {
      OFFSET 0 -44.4227 1.3727
      CHANNELS 3 Zrotation Xrotation Yrotation
      JOINT LeftFoot
      {
        OFFSET -0.253549 -42.0924 -1.46059
        CHANNELS 3 Zrotation Xrotation Yrotation
        JOINT LeftToes
        {
          OFFSET -0.04 -4.41509 8.4991
          CHANNELS 3 Zrotation Xrotation Yrotation
          End Site
          {
            OFFSET 0.08 -0.047448 9.77979
          }
        }
      }
    }
  }
  JOINT Spine
  {
    OFFSET 0 11.8905 0
    CHANNELS 3 Zrotation Xrotation Yrotation
    JOINT Spine1
    {
      OFFSET 0 25.6574 0.127663
      CHANNELS 3 Zrotation Xrotation Yrotation
      JOINT RightShoulder
      {
        OFFSET -8.99 -0.362252 -0.22
        CHANNELS 3 Zrotation Xrotation Yrotation
        JOINT RightArm
        {
          OFFSET -10.2827 -0.00338 0.322123
          CHANNELS 3 Zrotation Xrotation Yrotation
          JOINT RightForeArm
          {
            OFFSET -26.364 0.099144 -1.42434
            CHANNELS 3 Zrotation Xrotation Yrotation
            JOINT RightHand
            {
              OFFSET -22.0324 0.085362 1.02216
              CHANNELS 3 Zrotation Xrotation Yrotation
              End Site
              {
                OFFSET -13.3284 -0.6 1.50291
              }
            }
          }
        }
      }
      JOINT LeftShoulder1
      {
        OFFSET 8.99 -0.362252 -0.22
        CHANNELS 3 Zrotation Xrotation Yrotation
        JOINT LeftArm
        {
          OFFSET 10.2827 -0.00337999 0.322123
          CHANNELS 3 Zrotation Xrotation Yrotation
          JOINT LeftForeArm
          {
            OFFSET 26.2597 0.099144 -1.42434
            CHANNELS 3 Zrotation Xrotation Yrotation
            JOINT LeftHand
            {
              OFFSET 22.0902 0.085362 1.02216
              CHANNELS 3 Zrotation Xrotation Yrotation
              End Site
              {
                OFFSET 13.419 -0.6 1.50291
              }
            }
          }
        }
      }
      JOINT Head
      {
        OFFSET 0 8.73416 0.011341
        CHANNELS 3 Zrotation Xrotation Yrotation
        End Site
        {
          OFFSET -0.29 12.7742 2.51395
        }
      }
    }
  }
  JOINT RightUpLeg
  {
    OFFSET -8.9458 -8.66707 0.101652
    CHANNELS 3 Zrotation Xrotation Yrotation
    JOINT RightLeg
    {
      OFFSET 0 -44.4227 1.3727
      CHANNELS 3 Zrotation Xrotation Yrotation
      JOINT RightFoot
      {
        OFFSET 0.253549 -42.0924 -1.46059
        CHANNELS 3 Zrotation Xrotation Yrotation
        JOINT RightToes
        {
          OFFSET 0.04 -4.41509 8.4991
          CHANNELS 3 Zrotation Xrotation Yrotation
          End Site
          {
            OFFSET -0.08 -0.137448 9.77979
          }
        }
      }
    }
  }
}
MOTION
Frames:	21
Frame Time:	0.0333333
193.143 102.678 7.96708 -6.57853 -0.32679 -91.2644 0.133654 0.720491 1.78661 1.12809 12.845 13.9713 -3.82881 -11.3686 -0.0704382 -1.3343e-009 8.75235e-006 -1.47976e-008 -0.836973 11.4033 -1.1212 0.228459 -4.81609 -1.13119 36.8321 1.72902 0.03083 41.6346 -21.1464 4.89305 7.69258 38.4866 8.1983 -11.4182 9.32765 0.798264 -42.1386 3.41135 -3.51536 -29.3057 -15.0656 3.28451 -3.81986 36.2005 -15.0127 5.82328 9.61819 -0.917488 0.851693 2.81116 -3.5727 -1.3143 0.323744 -4.57055 -0.0922733 14.5965 -11.2016 3.75407 -13.1072 -0.0234989 0.0462048 0.000530889 0.662642 
193.168 102.678 7.98606 -6.59875 -0.320798 -91.2964 0.133695 0.711178 1.80666 1.11181 12.8818 13.988 -3.79241 -11.3863 -0.0704425 -1.3343e-009 8.75235e-006 -1.47976e-008 -0.876694 11.4159 -1.1165 0.312411 -4.75036 -1.14293 36.7154 1.72902 0.03083 41.7651 -21.1233 4.98289 7.70467 38.5235 8.17259 -11.4892 9.3202 0.838387 -42.2757 3.42959 -3.53142 -29.193 -15.2394 3.30095 -3.81691 36.3318 -14.9728 5.82328 9.61819 -0.917488 0.995931 2.88224 -3.39145 -1.29984 0.305497 -4.52567 -0.13637 14.6346 -11.1944 3.77243 -13.1078 -0.023499 0.0462048 0.000530889 0.662642 
193.213 102.678 8.02227 -6.64248 -0.310037 -91.3247 0.132418 0.716608 1.84132 1.08466 12.9141 13.9897 -3.73346 -11.3944 -0.0704445 -1.3343e-009 8.75235e-006 -1.47976e-008 -0.996997 11.3267 -1.0884 0.527317 -4.47995 -1.15505 36.5685 1.72887 0.03083 41.8993 -21.0752 5.16012 7.72743 38.5226 8.1358 -11.4999 9.326 0.768021 -42.5915 3.46663 -3.55788 -28.9201 -15.3111 3.2704 -3.82822 36.3597 -14.9451 5.82328 9.61819 -0.917488 1.3538 3.04969 -3.03538 -1.2671 0.307692 -4.44042 -0.221371 14.655 -11.2229 3.82606 -13.0877 -0.023497 0.0462048 0.000530889 0.662642 
193.255 102.678 8.059 -6.66781 -0.300394 -91.3352 0.125098 0.71853 1.85283 1.07368 12.9124 13.9965 -3.70964 -11.376 -0.07044 -1.3343e-009 8.75235e-006 -1.47976e-008 -1.13902 11.1965 -1.02489 0.763479 -4.19048 -1.13541 36.448 1.72788 0.03083 41.9831 -21.0892 5.27223 7.71582 38.5175 8.14288 -11.4161 9.34258 0.634097 -42.8886 3.49627 -3.57175 -28.6545 -15.0416 3.20029 -3.84312 36.1492 -14.9926 5.82328 9.61819 -0.917488 1.25156 3.05358 -3.02052 -1.2445 0.318308 -4.37708 -0.282917 14.6225 -11.2714 3.88983 -13.0446 -0.0234929 0.0462048 0.000530889 0.662642 
193.288 102.678 8.09137 -6.6673 -0.294892 -91.3621 0.101104 0.702736 1.83003 1.08426 12.9045 14.0542 -3.7247 -11.3551 -0.0704348 -1.3343e-009 8.75235e-006 -1.47976e-008 -1.22462 11.15 -0.949776 0.905238 -4.06578 -1.08656 36.3533 1.72653 0.03083 42.0715 -21.2472 5.30173 7.67232 38.6923 8.13767 -11.3928 9.34392 0.632583 -43.0154 3.50523 -3.57091 -28.5431 -14.7585 3.13753 -3.82914 36.0014 -15.0661 5.82328 9.61819 -0.917488 0.5042 2.74246 -3.45323 -1.25981 0.303305 -4.37793 -0.285768 14.5947 -11.2646 3.93784 -13.0112 -0.0234898 0.0462048 0.000530889 0.662642 
193.318 102.674 8.12585 -6.67497 -0.29784 -91.4123 0.0612657 0.686405 1.79411 1.09579 12.9227 14.1488 -3.72304 -11.3548 -0.0704348 -1.3343e-009 8.75235e-006 -1.47976e-008 -1.24957 11.199 -0.900964 0.954365 -4.06487 -1.04645 36.311 1.72515 0.0308299 42.1276 -21.441 5.32464 7.63931 39.027 8.08357 -11.4552 9.32263 0.831819 -43.0124 3.50445 -3.57197 -28.5613 -14.7833 3.10012 -3.80578 36.0682 -15.081 5.82328 9.61819 -0.917488 0.169813 2.48554 -3.63774 -1.31407 0.266375 -4.43403 -0.254276 14.6344 -11.1747 3.94273 -13.0107 -0.0234897 0.0462048 0.000530889 0.662642 
193.357 102.666 8.16599 -6.67959 -0.312191 -91.45 0.0138801 0.649623 1.76027 1.09181 12.9618 14.2262 -3.67608 -11.3624 -0.0704366 -1.3343e-009 8.75235e-006 -1.47976e-008 -1.25449 11.3278 -0.889793 0.966401 -4.18993 -1.03757 36.3475 1.72408 0.0308299 42.0389 -21.4366 5.27963 7.59722 39.1793 8.11583 -11.4108 9.30315 1.07473 -42.9672 3.50256 -3.57211 -28.6109 -14.8662 3.12644 -3.82458 36.0202 -15.0649 5.82328 9.61819 -0.917488 1.11575 2.73165 -3.0349 -1.37895 0.200467 -4.4918 -0.234913 14.725 -11.0749 3.8945 -13.0206 -0.0234907 0.0462048 0.000530889 0.662642 
193.405 102.662 8.20829 -6.62313 -0.327309 -91.464 -0.0253692 0.539549 1.72924 1.07621 12.9949 14.2755 -3.62029 -11.3533 -0.0704344 -1.3343e-009 8.75235e-006 -1.47976e-008 -1.23754 11.575 -0.897617 0.939144 -4.57929 -1.04205 36.4302 1.72364 0.0308299 41.818 -21.1877 5.05803 7.51192 38.9282 8.33169 -11.2034 9.30736 1.15839 -42.8793 3.49334 -3.56733 -28.6603 -14.6655 3.2681 -3.86296 35.6554 -15.1151 5.82328 9.61819 -0.917488 2.42682 3.21297 -2.17475 -1.41868 0.068608 -4.49587 -0.246738 14.8022 -11.0464 3.83927 -13.0022 -0.0234889 0.0462048 0.000530889 0.662642 
193.457 102.66 8.25269 -6.52711 -0.322579 -91.4842 -0.0433058 0.389494 1.70681 1.06294 13.0196 14.3252 -3.5914 -11.3368 -0.0704303 -1.3343e-009 8.75235e-006 -1.47976e-008 -1.16291 11.9001 -0.904764 0.854395 -5.12272 -1.03526 36.5019 1.72418 0.0308299 41.6155 -20.9194 4.78411 7.44969 38.5081 8.55095 -11.0782 9.32346 1.05471 -42.7636 3.47652 -3.55125 -28.7028 -14.3886 3.44894 -3.84883 35.3572 -15.2159 5.82328 9.61819 -0.917488 2.5997 3.15189 -1.91656 -1.42212 -0.0917993 -4.45104 -0.27256 14.8361 -11.0703 3.83813 -12.9546 -0.0234844 0.0462048 0.000530889 0.662642 
193.499 102.658 8.30375 -6.51268 -0.291827 -91.5102 -0.0489331 0.328352 1.69114 1.07026 13.0622 14.3718 -3.58286 -11.3434 -0.0704319 -1.3343e-009 8.75235e-006 -1.47976e-008 -1.04444 12.1246 -0.903297 0.76565 -5.38407 -1.01479 36.5628 1.72616 0.0318937 41.4883 -20.8277 4.70302 7.496 38.2682 8.55284 -11.203 9.33024 0.916159 -42.7227 3.46632 -3.53691 -28.6761 -14.3752 3.46335 -3.81568 35.4657 -15.2317 5.82328 9.61819 -0.917488 1.68639 2.41185 -2.26089 -1.41363 -0.142513 -4.42778 -0.282302 14.8398 -11.074 3.87311 -12.9117 -0.0234804 0.0462048 0.000530889 0.662642 
193.524 102.654 8.35817 -6.63613 -0.254739 -91.5002 -0.0691508 0.413876 1.65617 1.11442 13.1317 14.3867 -3.58597 -11.3751 -0.0704398 -1.3343e-009 8.75235e-006 -1.47976e-008 -0.954126 12.154 -0.888757 0.750168 -5.17376 -0.989934 36.639 1.73222 0.0387525 41.3499 -20.8218 4.81632 7.60274 38.1889 8.42514 -11.3902 9.33305 0.871684 -42.8098 3.47035 -3.53158 -28.5421 -14.4356 3.22926 -3.89429 35.661 -15.1028 5.82328 9.61819 -0.917488 1.01502 1.76388 -2.57485 -1.41839 -0.0167536 -4.46662 -0.269801 14.8263 -11.0521 3.87058 -12.8913 -0.0234785 0.0462048 0.000530889 0.662642 
193.538 102.648 8.40259 -6.80393 -0.231074 -91.4456 -0.111688 0.549342 1.5859 1.18948 13.2041 14.3766 -3.61222 -11.4044 -0.070447 -1.3343e-009 8.75235e-006 -1.47976e-008 -0.926548 12.1269 -0.865885 0.796237 -4.85421 -0.969531 36.707 1.74255 0.0570478 41.1621 -20.6921 4.89286 7.65649 38.0173 8.41161 -11.4127 9.33372 0.87941 -42.9113 3.47701 -3.52941 -28.3871 -14.2316 2.9361 -4.08669 35.5338 -14.9384 5.82328 9.61819 -0.917488 1.17775 1.7965 -2.58393 -1.4243 0.172572 -4.51054 -0.266034 14.8048 -11.0652 3.828 -12.8801 -0.0234774 0.0462048 0.000530889 0.662642 
193.549 102.642 8.42799 -6.91214 -0.213523 -91.3748 -0.149568 0.617671 1.50104 1.27097 13.2807 14.3628 -3.66004 -11.429 -0.0704531 -1.3343e-009 8.75235e-006 -1.47976e-008 -0.896637 12.2125 -0.86246 0.79764 -4.84002 -0.964794 36.745 1.75682 0.0870586 40.9887 -20.3844 4.79848 7.66088 37.6609 8.53589 -11.3583 9.33238 0.839637 -42.8427 3.46866 -3.52311 -28.3738 -13.9632 2.82899 -4.19778 35.3453 -14.8797 5.82328 9.61819 -0.917488 1.51066 2.22592 -2.55732 -1.40123 0.292223 -4.49337 -0.292971 14.797 -11.1404 3.82096 -12.8752 -0.023477 0.0462048 0.000530889 0.662642 
193.549 102.631 8.43834 -6.97323 -0.188859 -91.2724 -0.166882 0.611989 1.40722 1.35265 13.4102 14.3293 -3.70683 -11.4823 -0.0709189 -1.3343e-009 8.75235e-006 -1.47976e-008 -0.791714 12.3965 -0.909967 0.683505 -5.11419 -0.989907 36.8156 1.77153 0.115191 40.8422 -20.0128 4.58634 7.69597 37.23 8.64634 -11.4281 9.32862 0.778588 -42.5536 3.43996 -3.5095 -28.5593 -14.0313 2.9369 -4.09694 35.5784 -14.9372 5.82328 9.61819 -0.917488 1.59787 2.59658 -2.57061 -1.35787 0.354777 -4.4569 -0.317026 14.8274 -11.2476 3.87038 -12.9045 -0.0234797 0.0462048 0.000530889 0.662642 
193.531 102.615 8.44314 -7.03937 -0.179033 -91.0912 -0.19857 0.590989 1.26982 1.4466 13.5912 14.2592 -3.7376 -11.566 -0.0733826 -1.3343e-009 8.75235e-006 -1.47976e-008 -0.677601 12.5222 -0.995156 0.5418 -5.35331 -1.04631 36.968 1.78151 0.125148 40.6773 -19.768 4.37488 7.75316 36.9242 8.67979 -11.5864 9.31814 0.803297 -42.2363 3.40782 -3.49296 -28.765 -14.2979 3.08543 -3.91675 36.0417 -15.0176 5.82328 9.61819 -0.917488 1.75756 2.8823 -2.44086 -1.34955 0.424532 -4.49415 -0.293244 14.9072 -11.3617 3.90715 -12.9837 -0.0231665 0.0462048 0.000530889 0.662642 
193.508 102.599 8.44823 -7.09427 -0.222584 -90.8616 -0.282279 0.583135 1.10697 1.53012 13.7137 14.1739 -3.74296 -11.6216 -0.0753343 -1.3343e-009 8.75235e-006 -1.47976e-008 -0.704304 12.4611 -1.05516 0.53546 -5.29732 -1.10631 37.0952 1.78429 0.119796 40.5674 -19.8071 4.30839 7.77253 36.9435 8.64476 -11.6704 9.30511 0.89545 -42.1713 3.40113 -3.4893 -28.7428 -14.3525 3.09154 -3.87741 36.1521 -15.0342 5.82328 9.61819 -0.917488 2.03923 3.10681 -2.27123 -1.41358 0.465707 -4.60208 -0.243369 15.037 -11.4801 3.88914 -13.0805 -0.0221393 0.0462048 0.000530889 0.662642 
193.504 102.591 8.45606 -7.09422 -0.317778 -90.682 -0.389958 0.578313 1.0324 1.53934 13.6836 14.0806 -3.70338 -11.602 -0.0745628 -1.3343e-009 8.75235e-006 -1.47976e-008 -0.853588 12.2691 -1.05042 0.634897 -5.01275 -1.12811 37.0664 1.78424 0.114726 40.6332 -20.0409 4.44643 7.78566 37.2191 8.52539 -11.7104 9.3027 0.897882 -42.3791 3.42471 -3.50538 -28.4952 -14.2352 2.93465 -3.97624 35.9011 -14.9876 5.82328 9.61819 -0.917488 2.03612 3.09269 -2.34267 -1.5217 0.404854 -4.68358 -0.236167 15.2045 -11.5911 3.858 -13.1513 -0.0209114 0.0462048 0.000530889 0.662642 
193.523 102.589 8.47005 -7.0422 -0.43349 -90.5784 -0.466271 0.556591 1.09809 1.44825 13.5511 13.9531 -3.61194 -11.5319 -0.0693693 -1.3343e-009 8.75235e-006 -1.47976e-008 -0.888026 12.1992 -1.01988 0.565002 -4.92497 -1.09455 36.9665 1.78283 0.113632 40.7656 -20.1268 4.57035 7.85159 37.3269 8.39359 -11.8413 9.31045 0.739339 -42.5378 3.44377 -3.51971 -28.309 -14.2492 2.80219 -4.01423 35.7941 -14.9667 5.82328 9.61819 -0.917488 1.77445 2.89251 -2.57179 -1.62029 0.256869 -4.68424 -0.297156 15.3831 -11.689 3.8664 -13.1975 -0.0186754 0.0462048 0.000530889 0.662642 
193.541 102.589 8.49552 -6.96582 -0.546592 -90.4668 -0.525939 0.502706 1.18457 1.32519 13.4298 13.796 -3.50146 -11.4617 -0.0637537 -1.3343e-009 8.75235e-006 -1.47976e-008 -0.680205 12.43 -1.02733 0.192063 -5.38209 -1.03868 36.9764 1.78052 0.113094 40.7204 -19.9351 4.39249 7.90573 37.0911 8.40315 -11.9495 9.32137 0.562498 -42.422 3.42913 -3.50778 -28.3731 -14.2864 2.90531 -3.90973 35.9048 -15.0545 5.82328 9.61819 -0.917488 1.73868 2.8659 -2.61055 -1.70374 0.0912648 -4.65211 -0.386061 15.5535 -11.8035 3.92561 -13.2518 -0.0142318 0.0462048 0.000530889 0.662642 
193.541 102.59 8.53656 -6.89136 -0.655543 -90.2818 -0.627723 0.436144 1.1556 1.26619 13.3539 13.6614 -3.41613 -11.4087 -0.0599775 -1.3343e-009 8.75235e-006 -1.47976e-008 -0.425566 12.7491 -1.06867 -0.187244 -6.05201 -1.01156 37.037 1.77778 0.115258 40.5344 -19.8219 4.05654 7.85094 37.0096 8.51845 -11.7521 9.33172 0.56244 -42.279 3.40719 -3.48507 -28.5128 -13.9982 3.17466 -3.79969 35.7433 -15.2301 5.82328 9.61819 -0.917488 1.92178 3.06515 -2.41324 -1.80111 -0.0399201 -4.65767 -0.454288 15.7055 -11.9576 4.02034 -13.3197 -0.00754604 0.0462048 0.000530889 0.662642 
193.527 102.591 8.59124 -6.8661 -0.734297 -90.0708 -0.752446 0.420908 1.03926 1.28582 13.302 13.5793 -3.36917 -11.3777 -0.0584527 -1.3343e-009 8.75235e-006 -1.47976e-008 -0.353313 12.739 -1.07404 -0.207468 -6.14727 -1.00622 36.9076 1.77507 0.129286 40.5102 -20.0984 4.0412 7.74576 37.472 8.51629 -11.3249 9.33837 0.734663 -42.4736 3.42429 -3.4899 -28.4864 -13.5108 3.27223 -3.80272 35.1845 -15.381 5.82328 9.61819 -0.917488 1.79262 3.07745 -2.24849 -1.8981 -0.0762627 -4.70833 -0.481464 15.7959 -12.1161 4.11049 -13.3644 -0.00172304 0.0462048 0.000530889 0.662642 
